<?xml version="1.0" encoding="UTF-8"?>
<!DOCTYPE svg PUBLIC "-//W3C//DTD SVG 1.1//EN" "http://www.w3.org/Graphics/SVG/1.1/DTD/svg11.dtd">
<svg xmlns="http://www.w3.org/2000/svg" version="1.1" width="96px" height="96px" style="shape-rendering:geometricPrecision; text-rendering:geometricPrecision; image-rendering:optimizeQuality; fill-rule:evenodd; clip-rule:evenodd" xmlns:xlink="http://www.w3.org/1999/xlink">
<g><path style="opacity:0.954" fill="#fefefe" d="M 37.5,-0.5 C 44.1667,-0.5 50.8333,-0.5 57.5,-0.5C 70.2191,2.54297 80.2191,9.54297 87.5,20.5C 61.2111,19.5179 34.8778,19.1846 8.5,19.5C 15.5995,9.11645 25.2662,2.44979 37.5,-0.5 Z"/></g>
<g><path style="opacity:1" fill="#c263e1" d="M 8.5,19.5 C 34.8778,19.1846 61.2111,19.5179 87.5,20.5C 90.5902,21.665 91.9236,23.9983 91.5,27.5C 91.5,40.8333 91.5,54.1667 91.5,67.5C 91.9236,71.0017 90.5902,73.335 87.5,74.5C 61.2111,75.4821 34.8778,75.8154 8.5,75.5C 4.82968,74.1718 3.16302,71.5051 3.5,67.5C 3.5,54.1667 3.5,40.8333 3.5,27.5C 3.16302,23.4949 4.82968,20.8282 8.5,19.5 Z"/></g>
<g><path style="opacity:1" fill="#dda7ee" d="M 60.5,26.5 C 60.5,27.1667 60.5,27.8333 60.5,28.5C 60.1667,28.5 59.8333,28.5 59.5,28.5C 58.1986,27.36 57.0319,26.0267 56,24.5C 55.5065,26.1341 55.3398,27.8008 55.5,29.5C 54.5386,27.7354 54.2053,25.7354 54.5,23.5C 57.3579,23.0283 59.3579,24.0283 60.5,26.5 Z"/></g>
<g><path style="opacity:1" fill="#f4e2f9" d="M 23.5,25.5 C 24.7942,29.2229 25.9609,29.2229 27,25.5C 27.49,26.7932 27.6567,28.1266 27.5,29.5C 26.1667,29.5 24.8333,29.5 23.5,29.5C 23.5,28.1667 23.5,26.8333 23.5,25.5 Z"/></g>
<g><path style="opacity:1" fill="#f5e6fa" d="M 18.5,24.5 C 19.4584,24.9528 20.2917,25.6195 21,26.5C 21.3333,25.8333 21.6667,25.1667 22,24.5C 22.6667,26.1667 22.6667,27.8333 22,29.5C 20.6914,27.1088 19.6914,27.1088 19,29.5C 18.5065,27.8659 18.3398,26.1992 18.5,24.5 Z"/></g>
<g><path style="opacity:1" fill="#f6e8fa" d="M 33.5,25.5 C 33.5,26.1667 33.1667,26.5 32.5,26.5C 31.7321,27.2625 31.2321,28.2625 31,29.5C 30.3333,25.5 29.6667,25.5 29,29.5C 28.51,28.2068 28.3433,26.8734 28.5,25.5C 30.1667,25.5 31.8333,25.5 33.5,25.5 Z"/></g>
<g><path style="opacity:1" fill="#f5e6fa" d="M 59.5,28.5 C 58.4341,29.6921 57.6008,29.3588 57,27.5C 56.7216,28.4158 56.2216,29.0825 55.5,29.5C 55.3398,27.8008 55.5065,26.1341 56,24.5C 57.0319,26.0267 58.1986,27.36 59.5,28.5 Z"/></g>
<g><path style="opacity:1" fill="#f5e7fa" d="M 60.5,28.5 C 60.5,27.8333 60.5,27.1667 60.5,26.5C 61.3864,25.2241 62.3864,25.2241 63.5,26.5C 62.8333,26.8333 62.1667,27.1667 61.5,27.5C 62.0253,28.1924 62.6919,28.6924 63.5,29C 62.2506,29.7401 61.2506,29.5735 60.5,28.5 Z"/></g>
<g><path style="opacity:1" fill="#f8edfb" d="M 64.5,25.5 C 67.7973,25.3287 68.1306,25.9954 65.5,27.5C 68.1306,29.0046 67.7973,29.6713 64.5,29.5C 64.5,28.1667 64.5,26.8333 64.5,25.5 Z"/></g>
<g><path style="opacity:0.838" fill="#fefffe" d="M 3.5,27.5 C 3.5,40.8333 3.5,54.1667 3.5,67.5C 1.9679,64.2351 0.634569,60.9018 -0.5,57.5C -0.5,50.8333 -0.5,44.1667 -0.5,37.5C 0.634569,34.0982 1.9679,30.7649 3.5,27.5 Z"/></g>
<g><path style="opacity:1" fill="#deabef" d="M 33.5,25.5 C 34.1667,25.5 34.8333,25.5 35.5,25.5C 35.5,27.5 35.5,29.5 35.5,31.5C 33.7215,30.3303 32.7215,28.6636 32.5,26.5C 33.1667,26.5 33.5,26.1667 33.5,25.5 Z"/></g>
<g><path style="opacity:1" fill="#eed3f6" d="M 35.5,25.5 C 36.5,25.5 37.5,25.5 38.5,25.5C 38.5449,28.0772 37.5449,30.0772 35.5,31.5C 35.5,29.5 35.5,27.5 35.5,25.5 Z"/></g>
<g><path style="opacity:1" fill="#edd2f6" d="M 46.5,24.5 C 47.29,25.6085 47.79,26.9419 48,28.5C 50.3591,24.4232 51.8591,24.7566 52.5,29.5C 50.5,29.5 48.5,29.5 46.5,29.5C 46.1667,25.5 45.8333,25.5 45.5,29.5C 44.0222,29.762 42.6888,29.4287 41.5,28.5C 42.0253,27.8076 42.6919,27.3076 43.5,27C 43.1667,26.6667 42.8333,26.3333 42.5,26C 44.0581,25.79 45.3915,25.29 46.5,24.5 Z"/></g>
<g><path style="opacity:0.835" fill="#fefffe" d="M 91.5,27.5 C 93.0321,30.7649 94.3654,34.0982 95.5,37.5C 95.5,44.1667 95.5,50.8333 95.5,57.5C 94.3654,60.9018 93.0321,64.2351 91.5,67.5C 91.5,54.1667 91.5,40.8333 91.5,27.5 Z"/></g>
<g><path style="opacity:1" fill="#edd0f6" d="M 73.5,25.5 C 74.5,25.5 75.5,25.5 76.5,25.5C 76.5,27.5 76.5,29.5 76.5,31.5C 73.4017,31.5875 73.0684,31.0875 75.5,30C 73.408,28.8873 71.0747,28.7207 68.5,29.5C 68.3287,26.2027 68.9954,25.8694 70.5,28.5C 71.548,27.452 72.548,26.452 73.5,25.5 Z"/></g>
<g><path style="opacity:1" fill="#fefdfe" d="M 53.5,35.5 C 60.175,35.3337 66.8417,35.5004 73.5,36C 79.2024,42.4454 81.0357,49.9454 79,58.5C 76.9361,59.5914 74.7695,59.7581 72.5,59C 71.6634,57.9887 71.33,56.8221 71.5,55.5C 66.1667,55.5 60.8333,55.5 55.5,55.5C 55.67,56.8221 55.3366,57.9887 54.5,59C 52.2305,59.7581 50.0639,59.5914 48,58.5C 47.3333,53.8333 47.3333,49.1667 48,44.5C 49.8445,41.4721 51.6778,38.4721 53.5,35.5 Z"/></g>
<g><path style="opacity:1" fill="#c973e4" d="M 52.5,45.5 C 57.1585,45.0146 58.4919,46.848 56.5,51C 51.7282,51.8104 50.3948,49.9771 52.5,45.5 Z"/></g>
<g><path style="opacity:1" fill="#c973e4" d="M 70.5,45.5 C 75.1585,45.0146 76.4919,46.848 74.5,51C 69.7282,51.8104 68.3948,49.9771 70.5,45.5 Z"/></g>
<g><path style="opacity:1" fill="#fdfbfe" d="M 24.5,35.5 C 32.6577,34.8229 36.1577,38.4895 35,46.5C 34.1667,48.6667 32.6667,50.1667 30.5,51C 34.2104,52.188 37.2104,54.3547 39.5,57.5C 39.2907,58.086 38.9574,58.586 38.5,59C 30.9201,59.8132 23.4201,59.6466 16,58.5C 15.8374,56.6133 16.6707,55.1133 18.5,54C 20.5,53 22.5,52 24.5,51C 19.4648,47.9867 18.2981,43.8201 21,38.5C 22.1451,37.3636 23.3117,36.3636 24.5,35.5 Z"/></g>
<g><path style="opacity:0.954" fill="#fefefe" d="M 87.5,74.5 C 80.2191,85.457 70.2191,92.457 57.5,95.5C 50.8333,95.5 44.1667,95.5 37.5,95.5C 25.2662,92.5502 15.5995,85.8835 8.5,75.5C 34.8778,75.8154 61.2111,75.4821 87.5,74.5 Z"/></g>
</svg>
